<svg id="svg" version="1.1" xmlns="http://www.w3.org/2000/svg" xmlns:xlink="http://www.w3.org/1999/xlink" width="400" height="400" viewBox="0, 0, 400,400"><g id="svgg"><path id="path0" d="M203.600 104.000 L 203.600 208.000 301.800 208.000 L 400.000 208.000 400.000 104.000 L 400.000 0.000 301.800 0.000 L 203.600 0.000 203.600 104.000 M0.000 305.000 L 0.000 400.000 101.200 400.000 L 202.400 400.000 202.400 305.000 L 202.400 210.000 101.200 210.000 L 0.000 210.000 0.000 305.000 " stroke="none" fill="#fc04fc" fill-rule="evenodd"></path><path id="path1" d="M0.000 104.800 L 0.000 209.600 101.400 209.600 L 202.800 209.600 202.800 304.800 L 202.800 400.000 301.400 400.000 L 400.000 400.000 400.000 304.401 L 400.000 208.802 301.700 208.701 L 203.400 208.600 203.299 104.300 L 203.198 0.000 101.599 0.000 L 0.000 0.000 0.000 104.800 " stroke="none" fill="#040404" fill-rule="evenodd"></path><path id="path2" d="" stroke="none" fill="#c004100" fill-rule="evenodd"></path><path id="path3" d="M101.299 209.900 L 202.398 210.002 202.500 304.901 L 202.602 399.800 202.601 304.800 L 202.600 209.800 101.400 209.799 L 0.200 209.798 101.299 209.900 " stroke="none" fill="#400484" fill-rule="evenodd"></path><path id="path4" d="M252.732 208.700 C 279.865 208.757,324.145 208.757,351.132 208.700 C 378.119 208.643,355.920 208.597,301.800 208.597 C 247.680 208.597,225.599 208.643,252.732 208.700 " stroke="none" fill="#440404" fill-rule="evenodd"></path></g></svg>